<?xml version="1.0" encoding="UTF-8"?>
<svg width="123712mm" height="4367.9mm" version="1.1" viewBox="0 0 123712 4367.9" xmlns="http://www.w3.org/2000/svg" xmlns:xlink="http://www.w3.org/1999/xlink">
<defs>
<clipPath id="c">
<path d="m-43529 5157.8a30168 10722 0 0 0 3088.9 2247.4h232.38a30168 10722 0 0 1-3186.1-2247.4zm399.74 0a30168 10722 0 0 0 3260.4 2247.4h131a30168 10722 0 0 1-3339.8-2247.4zm101.67 0a30168 10722 0 0 0 3444.5 2247.4h290.7a30168 10722 0 0 1-3600-2247.4zm401.62 0a30168 10722 0 0 0 3717 2247.4h178.68a30168 10722 0 0 1-3806.4-2247.4zm234.18 0a30168 10722 0 0 0 3913.3 2247.4h290.71a30168 10722 0 0 1-4022.7-2247.4zm481.05 0a30168 10722 0 0 0 4106.4 2247.4h178.67a30168 10722 0 0 1-4195.8-2247.4zm175.93 0a30168 10722 0 0 0 4332.4 2247.4h359.53a30168 10722 0 0 1-4510.6-2247.4zm481.04 0a30168 10722 0 0 0 4646.9 2247.4h234.93a30168 10722 0 0 1-4784.2-2247.4zm337.3 0a30168 10722 0 0 0 4902.9 2247.4h359.53a30168 10722 0 0 1-5030-2247.4zm571.2 0a30168 10722 0 0 0 5127.2 2247.4h295.72a30168 10722 0 0 1-5292-2247.4zm258.26 0a30168 10722 0 0 0 5460 2247.4h443.99a30168 10722 0 0 1-5671.6-2247.4zm571.2 0a30168 10722 0 0 0 5833.3 2247.4h303.96a30168 10722 0 0 1-6006.3-2247.4zm374.56 0a30168 10722 0 0 0 6164.4 2247.4h512.12a30168 10722 0 0 1-6385.8-2247.4zm674.11 0a30168 10722 0 0 0 6586.1 2247.4h392.88a30168 10722 0 0 1-6800.3-2247.4zm352.24 0a30168 10722 0 0 0 7008.4 2247.4h552.79a30168 10722 0 0 1-7270.5-2247.4zm674.1 0a30168 10722 0 0 0 7475.6 2247.4h514.86a30168 10722 0 0 1-7804.3-2247.4zm489.86 0a30168 10722 0 0 0 8166.3 2247.4h702.02a30168 10722 0 0 1-8508.8-2247.4zm795.53 0a30168 10722 0 0 0 8770.5 2247.4h630.27a30168 10722 0 0 1-9165.9-2247.4zm463.14 0a30168 10722 0 0 0 9615.1 2247.4h925.36a30168 10722 0 0 1-10181-2247.4zm812.93 0a30168 10722 0 0 0 10596 2247.4h975.85a30168 10722 0 0 1-11268-2247.4zm705.64 0a30168 10722 0 0 0 12112 2247.4h1627a30168 10722 0 0 1-13295-2247.4zm944.54 0a30168 10722 0 0 0 14590 2247.4h3419.8a30168 10722 0 0 1-17706-2247.4zm599.24 0a30168 10722 0 0 0 23958 1949.1 30168 10722 0 0 0 12287-1949.1h-505.5a30168 10722 0 0 1-11783 1817.1 30168 10722 0 0 1-23411-1817.1zm1128.9 0a30168 10722 0 0 0 22988 1716.2 30168 10722 0 0 0 11381-1716.2h-503.21a30168 10722 0 0 1-10937 1608.3 30168 10722 0 0 1-22535-1608.3zm931.7 0a30168 10722 0 0 0 22018 1485 30168 10722 0 0 0 10406-1485h-600.28a30168 10722 0 0 1-9806.6 1353 30168 10722 0 0 1-21464-1353zm1207.3 0a30168 10722 0 0 0 20970 1252.1 30168 10722 0 0 0 9334.6-1252.1h-601.09a30168 10722 0 0 1-8793.4 1144.1 30168 10722 0 0 1-20395-1144.1zm1015 0a30168 10722 0 0 0 19837 1039.3 30168 10722 0 0 0 8258-1039.3h-735.12a30168 10722 0 0 1-7524 907.27 30168 10722 0 0 1-19134-907.27zm1399.8 0a30168 10722 0 0 0 18597 806.35 30168 10722 0 0 0 6930.3-806.35h-720.98a30168 10722 0 0 1-6269.2 698.43 30168 10722 0 0 1-17866-698.43zm1542.6 0a30168 10722 0 0 0 16961 569.4 30168 10722 0 0 0 5399.6-569.4h-977.67a30168 10722 0 0 1-4423 437.36 30168 10722 0 0 1-16034-437.36zm1898.9 0a30168 10722 0 0 0 15221 336.44 30168 10722 0 0 0 3594.7-336.44h-1039.2a30168 10722 0 0 1-2615.3 228.52 30168 10722 0 0 1-14152-228.52zm1990.4 0a30168 10722 0 0 0 13113 123.69 30168 10722 0 0 0 1529.6-123.69h-1694.8a30168 10722 0 0 1-11171 0zm3572.3 0a30168 10722 0 0 0 7552.5 0zm22003 0a30168 10722 0 0 1-12674 2054 30168 10722 0 0 1-5700.3 193.41h4080.2a30168 10722 0 0 0 1679.9-85.49 30168 10722 0 0 0 13059-2161.9zm630.25 0a30168 10722 0 0 1-13204 2247.4h1592.5a30168 10722 0 0 0 12057-2247.4zm888.7 0a30168 10722 0 0 1-11185 2247.4h984.08a30168 10722 0 0 0 10601-2247.4zm538.4 0a30168 10722 0 0 1-10115 2247.4h941.25a30168 10722 0 0 0 9565.5-2247.4zm742.82 0a30168 10722 0 0 1-9164.9 2247.4h718.42a30168 10722 0 0 0 8802.8-2247.4zm471.69 0a30168 10722 0 0 1-8497.7 2247.4h725.8a30168 10722 0 0 0 8110.2-2247.4zm771.95 0a30168 10722 0 0 1-7756.4 2247.4h577a30168 10722 0 0 0 7497.1-2247.4zm396.73 0a30168 10722 0 0 1-7264.5 2247.4h578.94a30168 10722 0 0 0 6994.6-2247.4zm597.9 0a30168 10722 0 0 1-6773.3 2247.4h490.14a30168 10722 0 0 0 6580.5-2247.4zm353.36 0a30168 10722 0 0 1-6394.6 2247.4h493.71a30168 10722 0 0 0 6171.4-2247.4zm567.06 0a30168 10722 0 0 1-5959.9 2247.4h429.47a30168 10722 0 0 0 5796.9-2247.4zm296.64 0a30168 10722 0 0 1-5641.8 2247.4h429.26a30168 10722 0 0 0 5462.8-2247.4zm491.63 0a30168 10722 0 0 1-5312.6 2247.4h391.44a30168 10722 0 0 0 5168.9-2247.4zm263.25 0a30168 10722 0 0 1-5046.4 2247.4h388.31a30168 10722 0 0 0 4874.1-2247.4zm391.72 0a30168 10722 0 0 1-4733 2247.4h356.34a30168 10722 0 0 0 4465.3-2157.4 30168 10722 0 0 0 132.18-89.963zm88.625 89.963a30168 10722 0 0 1-4361.3 2157.4h338.27a30168 10722 0 0 0 4350.3-2247.4h-183.11a30168 10722 0 0 1-144.18 89.963zm539.45-89.963a30168 10722 0 0 1-4239.1 2247.4h315.82a30168 10722 0 0 0 3342.6-1711.7 30168 10722 0 0 0 761.49-535.67zm-580.7 535.67a30168 10722 0 0 1-3263.5 1711.7h304.93a30168 10722 0 0 0 3898.2-2247.4h-153.12a30168 10722 0 0 1-786.52 535.67zm1132.8-535.67a30168 10722 0 0 1-3774 2247.4h297.41a30168 10722 0 0 0 2277.7-1241.8 30168 10722 0 0 0 1352.5-1005.6zm-1198.9 1005.6a30168 10722 0 0 1-2229.5 1241.8h270.49a30168 10722 0 0 0 3462.7-2247.4h-113.67a30168 10722 0 0 1-1390 1005.6zm1676.8-1005.6a30168 10722 0 0 1-3364.4 2247.4h263.52a30168 10722 0 0 0 1382.9-796.12 30168 10722 0 0 0 1842.2-1451.3zm-1718 1451.3a30168 10722 0 0 1-1352.8 796.12h247.44a30168 10722 0 0 0 3078.1-2247.4h-76.536a30168 10722 0 0 1-1896.2 1451.3zm3105.9-1451.3a30168 10722 0 0 0-3548.5 2247.4h260.39a30168 10722 0 0 1 3647.5-2247.4zm511.88 0a30168 10722 0 0 0-3735.9 2247.4h262.13a30168 10722 0 0 1 3812.2-2247.4zm710.99 0a30168 10722 0 0 0-3930.1 2247.4h260.39a30168 10722 0 0 1 4090-2247.4zm627.15 0a30168 10722 0 0 0-4232.7 2247.4h288.84a30168 10722 0 0 1 4329.2-2247.4zm818.97 0a30168 10722 0 0 0-4437.1 2247.4h306.95a30168 10722 0 0 1 4550.5-2247.4zm627.15 0a30168 10722 0 0 0-4651.6 2247.4h298.02a30168 10722 0 0 1 4764.4-2247.4zm840.05 0a30168 10722 0 0 0-4904.1 2247.4h306.95a30168 10722 0 0 1 5090.8-2247.4zm765.98 0a30168 10722 0 0 0-5257.5 2247.4h298.02a30168 10722 0 0 1 5401.3-2247.4zm887.82 0a30168 10722 0 0 0-5535.7 2247.4h359.39a30168 10722 0 0 1 5669.9-2247.4zm821.53 0a30168 10722 0 0 0-5845.3 2247.4h338.42a30168 10722 0 0 1 6019.9-2247.4zm1011.4 0a30168 10722 0 0 0-6189.5 2247.4h359.39a30168 10722 0 0 1 6416.1-2247.4zm940.68 0a30168 10722 0 0 0-6618.3 2247.4h338.42a30168 10722 0 0 1 6792.9-2247.4zm1159.6 0a30168 10722 0 0 0-7025.8 2247.4h420.3a30168 10722 0 0 1 7314.3-2247.4zm1173 0a30168 10722 0 0 0-7571.7 2247.4h385.35a30168 10722 0 0 1 7794-2247.4zm1197.9 0a30168 10722 0 0 0-8009.9 2247.4h420.3a30168 10722 0 0 1 8087.1-2203 30168 10722 0 0 1 273.02-44.372zm1391.7 0a30168 10722 0 0 0-967.79 157.29 30168 10722 0 0 0-7806.7 2090.1h388.96a30168 10722 0 0 1 7561-1992.6 30168 10722 0 0 1 1567.7-254.79zm1704.1 0a30168 10722 0 0 0-2343.4 380.86 30168 10722 0 0 0-7174.9 1866.5h493.66a30168 10722 0 0 1 6787.4-1740 30168 10722 0 0 1 3212.3-507.39zm1847 0a30168 10722 0 0 0-4157.8 620.31 30168 10722 0 0 0-6441.5 1627.1h441.88a30168 10722 0 0 1 6142.9-1529.6 30168 10722 0 0 1 4974.2-717.81zm1891.9 0a30168 10722 0 0 0-5767.2 812.52 30168 10722 0 0 0-5852.8 1434.9h493.67a30168 10722 0 0 1 5465.3-1308.3 30168 10722 0 0 1 7313.9-939.06zm3003.6 0a30168 10722 0 0 0-8738.3 1052 30168 10722 0 0 0-5087.3 1195.4h513.02a30168 10722 0 0 1 4717.5-1097.9 30168 10722 0 0 1 10923-1149.5zm8388.5 0a30168 10722 0 0 1 15706 2247.4h172.49a30168 10722 0 0 0-13921-2247.4zm3602.8 0a30168 10722 0 0 1 12709 2247.4h297.37a30168 10722 0 0 0-11685-2247.4zm2031.7 0a30168 10722 0 0 1 11138 2247.4h167.64a30168 10722 0 0 0-10574-2247.4zm1726.7 0a30168 10722 0 0 1 10012 2247.4h285.45a30168 10722 0 0 0-9581.8-2247.4zm1349.1 0a30168 10722 0 0 1 9089 2247.4h108.78a30168 10722 0 0 0-8707.9-2247.4zm1216.6 0a30168 10722 0 0 1 8346.6 2247.4h220.98a30168 10722 0 0 0-8042.5-2247.4zm858.4 0a30168 10722 0 0 1 7814.9 2247.4h108.78a30168 10722 0 0 0-7580.5-2247.4zm979.89 0a30168 10722 0 0 1 7309.2 2247.4h177.22a30168 10722 0 0 0-7023.4-2247.4zm804.75 0a30168 10722 0 0 1 6798.4 2247.4h60.286a30168 10722 0 0 0-6616.3-2247.4zm762.57 0a30168 10722 0 0 1 6405.4 2247.4h158.05a30168 10722 0 0 0-6169-2247.4zm629.89 0a30168 10722 0 0 1 5992.1 2247.4h60.288a30168 10722 0 0 0-5855.4-2247.4zm630.59 0a30168 10722 0 0 1 5731 2247.4h125.82a30168 10722 0 0 0-5559.5-2247.4zm604.14 0a30168 10722 0 0 1 5375.7 2247.4h18.817a30168 10722 0 0 0-5226.9-2247.4zm601.2 0a30168 10722 0 0 1 5054.5 2247.4h104.23a30168 10722 0 0 0-4869.5-2247.4zm394.93 0a30168 10722 0 0 1 4782.1 2247.4h18.815a30168 10722 0 0 0-4692.2-2247.4zm474.18 0a30168 10722 0 0 1 4588 2247.4h104.23a30168 10722 0 0 0-4471.2-2247.4zm397.66 0a30168 10722 0 0 1 4121.5 2103.9 30168 10722 0 0 0-102.53-72.993 30168 10722 0 0 0-3910.2-2030.9zm4121.5 2103.9a30168 10722 0 0 1 201.57 143.51h6.318a30168 10722 0 0 0-167.15-119 30168 10722 0 0 0-40.738-24.508zm-3647.4-2103.9a30168 10722 0 0 1 3618.3 1918 30168 10722 0 0 1 462.71 329.42h21.59a30168 10722 0 0 0-670.75-504.28 30168 10722 0 0 0-3248.7-1743.1zm3431.9 1743.1a30168 10722 0 0 1 40.745 24.511 30168 10722 0 0 0-99.586-70.902 30168 10722 0 0 0-40.746-24.511 30168 10722 0 0 1 99.587 70.902zm-99.587-70.902a30168 10722 0 0 0-102.52-72.99 30168 10722 0 0 0-2927.8-1599.2h-60.29a30168 10722 0 0 1 3090.6 1672.2zm140.33 95.413a30168 10722 0 0 1 648.62 479.77h18.087a30168 10722 0 0 0-627.12-455.95 30168 10722 0 0 0-39.587-23.812zm-2861.4-1767.6a30168 10722 0 0 1 2692 1486.3 30168 10722 0 0 1 1010.6 761.08h40.201a30168 10722 0 0 0-1156.9-887.62 30168 10722 0 0 0-2427.8-1359.8zm-19758 61.627a30168 10722 0 0 0-15242 1208.3 30168 10722 0 0 0-4260.8 977.49h585.98a30168 10722 0 0 1 3781-850.95 30168 10722 0 0 1 31712 850.95h394.4a30168 10722 0 0 0-16971-2185.8zm32.618 239.45a30168 10722 0 0 0-15242 1208.3 30168 10722 0 0 0-3352.8 738.04h513.02a30168 10722 0 0 1 2983-640.54 30168 10722 0 0 1 30880 640.54h242.41a30168 10722 0 0 0-16024-1946.3zm282.44 192.22a30168 10722 0 0 0-15242 1208.3 30168 10722 0 0 0-2599.6 545.82h708.77a30168 10722 0 0 1 1996.9-419.29 30168 10722 0 0 1 29969 419.29h429.99a30168 10722 0 0 0-15264-1754.1zm32.618 239.45a30168 10722 0 0 0-15242 1208.3 30168 10722 0 0 0-1459.2 306.37h607.64a30168 10722 0 0 1 994.78-208.87 30168 10722 0 0 1 28920 208.87h343.11a30168 10722 0 0 0-14164-1514.6zm220.44 217.91a30168 10722 0 0 0-15242 1208.3 30168 10722 0 0 0-421.32 88.465h761.7a30168 10722 0 0 1 27454 0h525.09a30168 10722 0 0 0-13077-1296.7zm32.615 239.45a30168 10722 0 0 0-14313 1057.3h743.19a30168 10722 0 0 1 24882 0h489.93a30168 10722 0 0 0-11803-1057.3zm282.44 192.22a30168 10722 0 0 0-13130 865.07h891.41a30168 10722 0 0 1 22077 0h715.64a30168 10722 0 0 0-10554-865.07zm32.618 239.45a30168 10722 0 0 0-11399 625.62h959.68a30168 10722 0 0 1 18612 0h730.8a30168 10722 0 0 0-8903.1-625.62zm277.89 217.92a30168 10722 0 0 0-9574.5 407.7h1602.1a30168 10722 0 0 1 13659 0h1262.6a30168 10722 0 0 0-6949.5-407.7zm32.615 239.45a30168 10722 0 0 0-6654.1 168.25h2187.4a30168 10722 0 0 1 6705.9 0h1769.6a30168 10722 0 0 0-4008.7-168.25z" fill="url(#b)" fill-rule="evenodd" stroke="#f9f9f9" stroke-linecap="square" stroke-width="2"/>
</clipPath>
<linearGradient id="b" x1="-42700" x2="99400" y1="15200" y2="32100" gradientTransform="matrix(.74395 0 0 .2644 -13966 160.7)" gradientUnits="userSpaceOnUse">
<stop stop-color="#2dfc41" offset="0"/>
<stop stop-color="#dc36cc" stop-opacity=".988" offset=".17192"/>
<stop stop-color="#27e2ff" offset=".41209"/>
<stop stop-color="#fffe32" offset=".6088"/>
<stop stop-color="#ff9325" offset=".81587"/>
<stop stop-color="#ff2b2b" offset="1"/>
</linearGradient>
<linearGradient id="a" x1="-40344" x2="62968" y1="6347.6" y2="6321.2" gradientUnits="userSpaceOnUse">
<stop stop-color="#2cff62" offset="0"/>
<stop stop-color="#f7ff14" offset=".25062"/>
<stop stop-color="#ff8612" stop-opacity=".53982" offset=".44136"/>
<stop stop-color="#ff0909" offset=".65463"/>
<stop stop-color="#fa22ff" offset=".83441"/>
<stop stop-color="#2311ff" offset="1"/>
</linearGradient>
</defs>
<g transform="translate(40228 -5156.7)">
<g transform="matrix(2.8833 0 0 1.965 -98256 -4978)" fill-rule="evenodd">
<rect x="20126" y="5158.6" width="42904" height="2220" ry="1.3942" fill="#fff" stroke-opacity="0"/>
<rect transform="matrix(.41488 0 0 1 36880 0)" x="-40382" y="5158.6" width="103412" height="2220" ry="1.3942" clip-path="url(#c)" fill="url(#a)" stroke="#ff2b2b" stroke-linecap="square" stroke-width="3.6317"/>
</g>
<g transform="matrix(.65971 -.13002 .13002 .65971 -7361.8 -3847.8)">
<g transform="translate(319.19 -1326)"></g>
<g transform="translate(665.3 -2637.9)">
<g transform="translate(319.19 -1326)"></g>
</g>
<g transform="translate(1283.8 -5309.8)">
<g transform="translate(319.19 -1326)"></g>
<g transform="translate(665.3 -2637.9)">
<g transform="translate(319.19 -1326)"></g>
</g>
</g>
</g>
<g transform="matrix(-.59602 .31125 -.31125 -.59602 26439 14834)">
<g transform="translate(319.19 -1326)"></g>
</g>
<g transform="matrix(-.59602 .31125 -.31125 -.59602 26864 16613)">
<g transform="translate(319.19 -1326)"></g>
</g>
<g transform="matrix(-.59602 .31125 -.31125 -.59602 27327 18398)">
<g transform="translate(319.19 -1326)"></g>
</g>
</g>
</svg>
