<?xml version="1.0" encoding="UTF-8"?>
<svg width="1189.6mm" height="21.134mm" version="1.1" viewBox="0 0 1189.6 21.134" xmlns="http://www.w3.org/2000/svg" xmlns:xlink="http://www.w3.org/1999/xlink">
<defs>
<linearGradient id="a" x1="-110.46" x2="1022.6" y1="312.66" y2="455.07" gradientTransform="rotate(14.952 983.3 -400.99)" gradientUnits="userSpaceOnUse">
<stop stop-color="#30ff29" offset="0"/>
<stop stop-color="#c254af" stop-opacity=".74902" offset=".25"/>
<stop stop-color="#3b17fe" stop-opacity=".49804" offset=".5"/>
<stop stop-color="#c949aa" offset=".75"/>
<stop stop-color="#fc0dd5" stop-opacity="0" offset="1"/>
</linearGradient>
</defs>
<g transform="translate(283.75 -156.38)" fill="none">
<path d="m-282.93 156.88a222.48 222.48 0 0 0 11.845 20.134h13.331a222.48 222.48 0 0 1-14.124-20.134zm27.584 0a222.48 222.48 0 0 0 16.941 20.134h9.8842a222.48 222.48 0 0 1-18.765-20.134zm23.522 0a222.48 222.48 0 0 0 22.271 20.134h28.529a222.48 222.48 0 0 1-28.188-20.134zm41.34 0a222.48 222.48 0 0 0 36.759 20.134h45.124a222.48 222.48 0 0 1-11.313-2.2996 222.48 222.48 0 0 1-45.233-17.834zm70.075 0a222.48 222.48 0 0 0 6.1826 2.0583 222.48 222.48 0 0 0 120.62-2.0583zm160.65 0a222.48 222.48 0 0 1-55.188 20.134h36.292a222.48 222.48 0 0 0 37.419-20.134zm36.269 0a222.48 222.48 0 0 1-28.699 20.134h17.221a222.48 222.48 0 0 0 22.447-20.134zm18.975 0a222.48 222.48 0 0 1-18.836 20.134h7.5603a222.48 222.48 0 0 0 16.881-20.134zm10.389 0a222.48 222.48 0 0 1-14.022 20.134h6.0746a222.48 222.48 0 0 0 12.181-20.134zm20.667 0a222.48 222.48 0 0 0-8.8894 20.134h3.4664a222.48 222.48 0 0 1 10.734-20.134zm11.857 0a222.48 222.48 0 0 0-12.567 20.134h6.5526a222.48 222.48 0 0 1 15.384-20.134zm20.124 0a222.48 222.48 0 0 0-18.004 20.134h10.464a222.48 222.48 0 0 1 22.306-20.134zm31.637 0a222.48 222.48 0 0 0-27.204 20.134h18.912a222.48 222.48 0 0 1 34.699-20.134zm72.171 0a222.48 222.48 0 0 0-57.606 20.134h30.606a222.48 222.48 0 0 1 99.596-9.4645 222.48 222.48 0 0 1 40.464 9.4645h33.58a222.48 222.48 0 0 0-56.567-20.134zm142.65 0a222.48 222.48 0 0 1 34.465 20.134h16.296a222.48 222.48 0 0 0-26.922-20.134zm44.54 0a222.48 222.48 0 0 1 22.068 20.134h17.888a222.48 222.48 0 0 0-17.946-20.134zm36.265 0a222.48 222.48 0 0 1 15.294 20.134h13.685a222.48 222.48 0 0 0-12.586-20.134zm26.919 0a222.48 222.48 0 0 1 10.769 20.134h10.57a222.48 222.48 0 0 0-8.7452-20.134zm28.762 0a222.48 222.48 0 0 0 16.074 20.134h9.0568a222.48 222.48 0 0 1-18.786-20.134zm17.956 0a222.48 222.48 0 0 0 23.437 20.134h8.1716a222.48 222.48 0 0 1-25.923-20.134zm18.082 0a222.48 222.48 0 0 0 32.529 20.134h41.793a222.48 222.48 0 0 1-51.628-20.134zm42.415 0a222.48 222.48 0 0 0 140.57 6.5061 222.48 222.48 0 0 0 19.276-6.5061h-56.41a222.48 222.48 0 0 1-55.068 0zm192.56 0a222.48 222.48 0 0 1-45.402 18.643 222.48 222.48 0 0 1-6.734 1.4903h48.31a222.48 222.48 0 0 0 32.832-20.134zm48.745 0a222.48 222.48 0 0 1-26.238 20.134h14.949a222.48 222.48 0 0 0 23.186-20.134zm30.044 0a222.48 222.48 0 0 1-18.719 20.134h16.333a222.48 222.48 0 0 0 15.999-20.134zm-583.52 17.5a222.48 222.48 0 0 0-35.114 2.634h65.912a222.48 222.48 0 0 0-4.0075-0.62942 222.48 222.48 0 0 0-26.791-2.0045z" stroke="url(#a)" stroke-linecap="square"/>
<path d="m-365.85-35.919h681.05" stroke="#000" stroke-width=".26458px"/>
</g>
</svg>
