<?xml version="1.0" encoding="UTF-8"?>
<svg width="86.801mm" height="13.932mm" version="1.1" viewBox="0 0 86.801 13.932" xmlns="http://www.w3.org/2000/svg">
 <g transform="translate(-59.628 -173.69)">
  <g transform="translate(1051.8 865.42)">
   <text x="-975.93585" y="-681.05927" fill="#000000" font-family="Montserrat" font-size="10.583px" stroke-width=".26458" style="font-variant-caps:normal;font-variant-east-asian:normal;font-variant-ligatures:normal;font-variant-numeric:normal;font-variation-settings:'wght' 500;line-height:1.25" xml:space="preserve"><tspan x="-975.93585" y="-681.05927" fill="#000000" font-family="Montserrat" font-size="10.583px" stroke-width=".26458" style="font-variant-caps:normal;font-variant-east-asian:normal;font-variant-ligatures:normal;font-variant-numeric:normal;font-variation-settings:'wght' 500">CROSSMARK</tspan></text>
   <path d="m-988.19-679.77c2.103-1.0497 3.839-1.1243 5.7144-0.24547 0.69641 0.32635 1.4993 0.83558 2.1416 1.3582l0.40793 0.33192 0.52309-0.51909c0.28767-0.28549 0.52309-0.53955 0.52309-0.56457 0-0.0251-0.19056-0.28242-0.4235-0.57203-0.8706-1.0825-1.5205-2.3824-1.7529-3.5058-0.18223-0.88075-0.11157-2.2102 0.16265-3.0628 0.33991-1.0568 1.0083-2.2527 1.8809-3.365l0.1655-0.211-0.53719-0.5372-0.53719-0.53721-0.50767 0.40621c-0.76948 0.61569-1.8135 1.2471-2.4994 1.5116-2.1669 0.83563-3.8734 0.50325-6.7681-1.3182l-1.0315-0.64908-0.5046 0.56374-0.50453 0.56376 0.37432 0.47519c2.6368 3.3472 2.6366 6.3953-4.4e-4 9.8451l-0.30724 0.40188 0.21927 0.24413c0.12056 0.13427 0.35197 0.38617 0.5141 0.55978l0.29483 0.31566 0.84641-0.55518c0.46552-0.30535 1.1884-0.72591 1.6064-0.93457z" fill="none" stroke="#000" stroke-linecap="square" stroke-linejoin="round" stroke-width=".963" style="paint-order:normal"/>
  </g>
 </g>
</svg>
